@startuml er-location
title Location ER-diagram

entity Location {
  * id : UUID <<PK>>
  --
  name : string
  type : int
  user_id : UUID <<FK>>
  parent_location_id : UUID <<FK>>
}

entity SubscriptionLevel {
  * id : UUID <<PK>>
  --
  max_location_count: int
}

entity User {
  * id : UUID <<PK>>
  --
  subscription_level_id : UUID <<FK>>
}

User ||--o{ Location : "has"
User ||--|| SubscriptionLevel : "has"
Location ||--o{ Location : "has"

@enduml